<?xml version="1.0" encoding="UTF-8" standalone="no"?>
<!DOCTYPE svg PUBLIC "-//W3C//DTD SVG 1.1//EN" "http://www.w3.org/Graphics/SVG/1.1/DTD/svg11.dtd">
<svg width="100%" height="100%" viewBox="0 0 200 200" version="1.1" xmlns="http://www.w3.org/2000/svg" xmlns:xlink="http://www.w3.org/1999/xlink" xml:space="preserve" xmlns:serif="http://www.serif.com/" style="fill-rule:evenodd;clip-rule:evenodd;stroke-linejoin:round;stroke-miterlimit:2;">
    <g transform="matrix(-5.2644,-6.44703e-16,6.44703e-16,-5.2644,5452.84,228.932)">
        <path d="M1001.6,37.137C1001.43,37.121 1001.39,37.121 1001.22,37.091C999.598,36.793 998.369,35.066 998.681,33.396C998.751,33.019 998.891,32.655 999.09,32.328C999.179,32.182 999.208,32.15 999.309,32.014L1014.33,13.006C1014.44,12.877 1014.47,12.842 1014.59,12.722C1015.75,11.57 1017.84,11.522 1019.05,12.722C1019.17,12.842 1019.19,12.877 1019.3,13.006L1034.33,32.014C1034.43,32.15 1034.45,32.182 1034.54,32.328C1035.44,33.792 1034.87,35.964 1033.32,36.779C1032.98,36.957 1032.6,37.073 1032.22,37.119C1032.05,37.14 1032.01,37.138 1031.84,37.143L1001.79,37.143C1001.73,37.141 1001.67,37.139 1001.6,37.137Z" style="fill:white;"/>
    </g>
</svg>
