<?xml version="1.0" encoding="UTF-8" standalone="no"?>
<!DOCTYPE svg PUBLIC "-//W3C//DTD SVG 1.1//EN" "http://www.w3.org/Graphics/SVG/1.1/DTD/svg11.dtd">
<svg width="100%" height="100%" viewBox="0 0 200 200" version="1.1" xmlns="http://www.w3.org/2000/svg" xmlns:xlink="http://www.w3.org/1999/xlink" xml:space="preserve" xmlns:serif="http://www.serif.com/" style="fill-rule:evenodd;clip-rule:evenodd;stroke-linejoin:round;stroke-miterlimit:2;">
    <g transform="matrix(1.09652,0,0,1.09652,-8.79252,-7.37713)">
        <g transform="matrix(-1,0,0,1,197.814,0)">
            <path d="M44.359,119.792C45.173,119.019 45.392,119.951 45.49,120.362C46.021,122.598 47.548,133.21 47.548,133.21C47.686,133.947 47.706,134.136 47.904,134.86C49.397,140.318 54.033,144.733 59.521,145.977C61.031,146.32 61.816,146.488 64.556,146.284L65.394,146.176C65.394,146.176 76.148,144.234 78.569,144.112C79.202,144.08 80.888,144.479 79.92,145.447C73.749,151.618 42.913,182.454 42.913,182.454C41.134,184.114 40.642,183.871 39.714,183.957C37.443,184.169 35.115,182.699 34.335,180.55C34.225,180.249 34.214,180.168 34.136,179.858L30.761,164.029L14.894,160.621C14.894,160.621 12.811,160.117 11.683,158.462C10.462,156.671 10.521,154.124 11.832,152.389C12.025,152.133 12.086,152.08 12.304,151.846C12.304,151.846 38.828,125.039 44.359,119.792Z" style="fill:rgb(115,45,196);"/>
        </g>
        <g transform="matrix(1,0,0,1,-0.293415,0)">
            <path d="M44.359,119.792C45.173,119.019 45.392,119.951 45.49,120.362C46.021,122.598 47.548,133.21 47.548,133.21C47.686,133.947 47.706,134.136 47.904,134.86C49.397,140.318 54.033,144.733 59.521,145.977C61.031,146.32 61.816,146.488 64.556,146.284L65.394,146.176C65.394,146.176 76.148,144.234 78.569,144.112C79.202,144.08 80.888,144.479 79.92,145.447C76.813,148.554 67.456,157.911 58.928,166.439C50.517,174.85 42.913,182.454 42.913,182.454C41.134,184.114 40.642,183.871 39.714,183.957C37.443,184.169 35.115,182.699 34.335,180.55C34.225,180.249 34.214,180.168 34.136,179.858L30.761,164.029L14.894,160.621C14.894,160.621 12.811,160.117 11.683,158.462C10.462,156.671 10.521,154.124 11.832,152.389C12.025,152.133 12.086,152.08 12.304,151.846C12.304,151.846 38.828,125.039 44.359,119.792Z" style="fill:rgb(115,45,196);"/>
        </g>
        <g transform="matrix(0.911978,0,0,0.911978,8.01859,6.72778)">
            <path d="M100.446,5.646C104.232,6.05 104.983,6.783 106.946,8.591L119.717,21.22L137.583,18.421C137.583,18.421 142.266,18.117 145.216,20.261C146.994,21.553 148.338,23.426 148.99,25.527C149.184,26.149 149.199,26.314 149.324,26.952L152.135,44.5L168.184,52.586C168.184,52.586 172.57,55.381 173.538,59.3C174.128,61.687 173.755,64.227 172.697,66.475L164.554,82.279L172.697,98.082C172.697,98.082 174.472,102.472 173.336,105.968C172.651,108.075 171.268,109.944 169.451,111.215C168.913,111.591 168.759,111.656 168.184,111.971L152.135,120.058L149.324,137.606C149.324,137.606 148.166,142.154 145.216,144.297C143.438,145.589 141.241,146.288 139.041,146.259C138.39,146.251 138.229,146.214 137.583,146.136L119.717,143.338L106.946,155.967C106.946,155.967 103.346,158.937 99.718,158.937C97.531,158.937 95.353,158.219 93.595,156.915C93.074,156.529 92.966,156.406 92.49,155.967L79.718,143.338L61.852,146.136C61.852,146.136 56.707,146.425 53.643,143.846C51.776,142.275 50.588,140.025 50.111,137.606L47.301,120.058L31.251,111.971C31.251,111.971 26.866,109.177 25.897,105.258C25.307,102.871 25.68,100.331 26.738,98.082L34.881,82.279L26.738,66.475C26.738,66.475 24.833,61.637 26.353,57.897C27.278,55.619 29.073,53.783 31.251,52.586L47.301,44.5L50.111,26.952C50.111,26.952 51.427,21.969 54.827,19.852C56.897,18.562 59.405,18.127 61.852,18.421L79.718,21.22L92.49,8.591C92.49,8.591 96.877,5.52 100.446,5.646ZM100.05,30.775C123.682,31 145.984,49.241 150.36,72.853C153.444,89.494 147.694,107.546 135.469,119.341C121.208,133.101 98.703,137.649 79.965,129.853C63.525,123.013 51.185,107.121 48.713,89.474C45.648,67.6 58.349,44.458 78.527,35.329C85.26,32.282 92.662,30.752 100.05,30.775Z" style="fill:rgb(205,172,81);"/>
        </g>
        <g transform="matrix(1.10729,0,0,1.10729,-29.7901,-34.0899)">
            <circle cx="116.274" cy="104.638" r="36.355" style="fill:rgb(183,112,59);"/>
        </g>
    </g>
    <g transform="matrix(1.10729,0,0,1.10729,-29.7901,-34.0899)">
        <circle cx="116.274" cy="104.638" r="36.355" style="fill:none;"/>
    </g>
</svg>
