<?xml version="1.0" encoding="UTF-8" standalone="no"?>
<!DOCTYPE svg PUBLIC "-//W3C//DTD SVG 1.1//EN" "http://www.w3.org/Graphics/SVG/1.1/DTD/svg11.dtd">
<svg width="100%" height="100%" viewBox="0 0 165 40" version="1.1" xmlns="http://www.w3.org/2000/svg" xmlns:xlink="http://www.w3.org/1999/xlink" xml:space="preserve" xmlns:serif="http://www.serif.com/" style="fill-rule:evenodd;clip-rule:evenodd;stroke-linejoin:round;stroke-miterlimit:2;">
    <g transform="matrix(0.208114,0,0,0.208114,-605.46,-116.222)">
        <g transform="matrix(0.757511,0,0,0.918912,2208.35,-16.9879)">
            <g transform="matrix(200,0,0,164.871,1094.67,797.662)">
                <path d="M0.421,-0.375C0.338,-0.386 0.28,-0.391 0.248,-0.391C0.215,-0.391 0.193,-0.388 0.184,-0.382C0.174,-0.376 0.169,-0.367 0.169,-0.354C0.169,-0.341 0.175,-0.332 0.189,-0.327C0.202,-0.322 0.235,-0.314 0.289,-0.305C0.342,-0.295 0.38,-0.279 0.403,-0.257C0.426,-0.235 0.437,-0.199 0.437,-0.15C0.437,-0.042 0.37,0.012 0.236,0.012C0.192,0.012 0.139,0.006 0.076,-0.006L0.044,-0.012L0.048,-0.124C0.131,-0.113 0.188,-0.108 0.221,-0.108C0.253,-0.108 0.275,-0.111 0.287,-0.118C0.298,-0.124 0.304,-0.133 0.304,-0.146C0.304,-0.159 0.298,-0.168 0.286,-0.174C0.273,-0.18 0.241,-0.187 0.19,-0.196C0.138,-0.205 0.099,-0.219 0.074,-0.24C0.049,-0.261 0.036,-0.298 0.036,-0.351C0.036,-0.404 0.054,-0.444 0.09,-0.471C0.126,-0.498 0.172,-0.511 0.229,-0.511C0.268,-0.511 0.322,-0.505 0.39,-0.492L0.423,-0.486L0.421,-0.375Z" style="fill:url(#_Linear1);fill-rule:nonzero;"/>
            </g>
            <g transform="matrix(200,0,0,164.871,1189.07,797.662)">
                <path d="M0.062,0.21L0.062,-0.5L0.195,-0.5L0.195,-0.473C0.238,-0.499 0.276,-0.512 0.309,-0.512C0.376,-0.512 0.426,-0.492 0.458,-0.452C0.49,-0.411 0.506,-0.343 0.506,-0.246C0.506,-0.149 0.488,-0.082 0.453,-0.045C0.418,-0.007 0.36,0.012 0.279,0.012C0.257,0.012 0.233,0.01 0.208,0.006L0.196,0.004L0.196,0.21L0.062,0.21ZM0.283,-0.392C0.258,-0.392 0.233,-0.387 0.208,-0.377L0.196,-0.372L0.196,-0.11C0.226,-0.106 0.25,-0.104 0.269,-0.104C0.308,-0.104 0.334,-0.115 0.349,-0.138C0.363,-0.161 0.37,-0.199 0.37,-0.254C0.37,-0.346 0.341,-0.392 0.283,-0.392Z" style="fill:url(#_Linear2);fill-rule:nonzero;"/>
            </g>
            <g transform="matrix(200,0,0,164.871,1297.87,797.662)">
                <path d="M0.172,-0.193C0.173,-0.162 0.181,-0.14 0.197,-0.127C0.212,-0.113 0.235,-0.106 0.264,-0.106C0.326,-0.106 0.381,-0.108 0.43,-0.112L0.458,-0.115L0.46,-0.016C0.383,0.003 0.314,0.012 0.252,0.012C0.177,0.012 0.122,-0.008 0.088,-0.048C0.054,-0.088 0.037,-0.153 0.037,-0.243C0.037,-0.422 0.111,-0.512 0.258,-0.512C0.403,-0.512 0.476,-0.437 0.476,-0.286L0.466,-0.193L0.172,-0.193ZM0.344,-0.295C0.344,-0.335 0.338,-0.363 0.325,-0.379C0.312,-0.394 0.29,-0.402 0.259,-0.402C0.227,-0.402 0.204,-0.394 0.192,-0.378C0.179,-0.361 0.172,-0.334 0.171,-0.295L0.344,-0.295Z" style="fill:url(#_Linear3);fill-rule:nonzero;"/>
            </g>
            <g transform="matrix(200,0,0,164.871,1399.87,797.662)">
                <path d="M0.445,-0.344L0.445,-0.136C0.446,-0.12 0.449,-0.109 0.453,-0.103C0.457,-0.096 0.465,-0.092 0.478,-0.089L0.474,0.012C0.44,0.012 0.413,0.01 0.393,0.005C0.372,0 0.352,-0.009 0.331,-0.023C0.283,0 0.234,0.012 0.184,0.012C0.081,0.012 0.029,-0.043 0.029,-0.152C0.029,-0.205 0.043,-0.243 0.072,-0.266C0.101,-0.288 0.145,-0.301 0.204,-0.305L0.311,-0.313L0.311,-0.344C0.311,-0.365 0.306,-0.379 0.297,-0.387C0.288,-0.394 0.273,-0.398 0.252,-0.398L0.064,-0.39L0.06,-0.483C0.131,-0.502 0.199,-0.512 0.264,-0.512C0.328,-0.512 0.374,-0.499 0.403,-0.472C0.431,-0.445 0.445,-0.403 0.445,-0.344ZM0.22,-0.212C0.183,-0.209 0.164,-0.189 0.164,-0.152C0.164,-0.115 0.18,-0.097 0.213,-0.097C0.238,-0.097 0.266,-0.101 0.296,-0.109L0.311,-0.113L0.311,-0.22L0.22,-0.212Z" style="fill:url(#_Linear4);fill-rule:nonzero;"/>
            </g>
            <g transform="matrix(200,0,0,164.871,1502.07,797.662)">
                <path d="M0.196,-0L0.062,-0L0.062,-0.7L0.196,-0.7L0.196,-0.302L0.247,-0.311L0.346,-0.5L0.496,-0.5L0.366,-0.263L0.503,-0L0.352,-0L0.251,-0.195L0.196,-0.186L0.196,-0Z" style="fill:url(#_Linear5);fill-rule:nonzero;"/>
            </g>
            <g transform="matrix(200,0,0,164.871,1604.01,797.227)">
                <path d="M0.111,-0.561C0.111,-0.608 0.13,-0.645 0.167,-0.672C0.204,-0.699 0.255,-0.712 0.319,-0.712C0.382,-0.712 0.432,-0.698 0.467,-0.671C0.502,-0.643 0.52,-0.605 0.52,-0.557C0.52,-0.509 0.51,-0.471 0.49,-0.444C0.47,-0.417 0.434,-0.385 0.383,-0.349L0.481,-0.251C0.485,-0.261 0.489,-0.28 0.493,-0.309C0.497,-0.338 0.499,-0.361 0.5,-0.379L0.63,-0.376C0.62,-0.299 0.603,-0.231 0.579,-0.173L0.691,-0.075L0.615,0.012L0.509,-0.075C0.486,-0.05 0.456,-0.029 0.42,-0.013C0.383,0.004 0.345,0.012 0.304,0.012C0.207,0.012 0.137,-0.006 0.097,-0.041C0.056,-0.076 0.035,-0.127 0.035,-0.196C0.035,-0.25 0.046,-0.293 0.069,-0.324C0.092,-0.355 0.128,-0.38 0.177,-0.399C0.15,-0.432 0.132,-0.459 0.124,-0.48C0.115,-0.501 0.111,-0.528 0.111,-0.561ZM0.287,-0.108C0.314,-0.108 0.34,-0.112 0.365,-0.119C0.39,-0.126 0.408,-0.136 0.418,-0.148L0.245,-0.321C0.196,-0.297 0.171,-0.259 0.171,-0.207C0.171,-0.141 0.21,-0.108 0.287,-0.108ZM0.247,-0.531C0.247,-0.504 0.262,-0.475 0.292,-0.443L0.309,-0.425C0.336,-0.445 0.356,-0.463 0.367,-0.479C0.378,-0.494 0.384,-0.513 0.384,-0.535C0.384,-0.577 0.361,-0.598 0.316,-0.598C0.27,-0.598 0.247,-0.576 0.247,-0.531Z" style="fill:url(#_Linear6);fill-rule:nonzero;"/>
            </g>
            <g transform="matrix(200,0,0,164.871,1744.21,797.227)">
                <path d="M0.22,-0.386L0.22,-0L0.086,-0L0.086,-0.386L0.032,-0.386L0.032,-0.5L0.086,-0.5L0.086,-0.522C0.086,-0.594 0.097,-0.644 0.118,-0.671C0.139,-0.698 0.177,-0.712 0.232,-0.712C0.256,-0.712 0.287,-0.709 0.325,-0.702L0.346,-0.699L0.344,-0.59C0.315,-0.591 0.29,-0.592 0.27,-0.592C0.25,-0.592 0.237,-0.587 0.23,-0.576C0.223,-0.565 0.22,-0.547 0.22,-0.521L0.22,-0.5L0.341,-0.5L0.341,-0.386L0.22,-0.386Z" style="fill:url(#_Linear7);fill-rule:nonzero;"/>
            </g>
            <g transform="matrix(200,0,0,164.871,1815.61,797.227)">
                <rect x="0.068" y="-0.7" width="0.134" height="0.7" style="fill:url(#_Linear8);fill-rule:nonzero;"/>
            </g>
            <g transform="matrix(200,0,0,164.871,1869.61,797.227)">
                <path d="M0.016,-0.5L0.148,-0.5L0.239,-0.114L0.262,-0.114L0.353,-0.5L0.485,-0.5L0.309,0.21L0.178,0.21L0.233,-0L0.139,-0L0.016,-0.5Z" style="fill:url(#_Linear9);fill-rule:nonzero;"/>
            </g>
        </g>
        <g transform="matrix(0.899898,0,0,0.899898,2691.29,-196.379)">
            <path d="M388.47,901.206C388.792,901.488 389.32,901.632 390.22,901.465C473.628,885.963 472.353,912.464 528.353,905.849C488.011,929.121 411.864,902.844 385.358,920.228C383.854,921.215 383.316,924.148 381.592,927.016C379.836,929.938 377.999,930.846 377.783,932.088C377.28,934.992 377.389,937.517 378.617,941.339C378.986,942.488 378.813,946.537 377.513,946.672C371.82,947.265 360.969,945.314 357.746,942.648C356.938,941.979 358.221,938.495 359.38,937.4C361.734,935.177 362.527,933.573 363.955,929.604C364.592,927.833 363.347,926.329 362.659,922.39C361.826,917.619 362.977,915.524 361.85,914.422C324.375,877.778 273.846,871.981 246.71,841.963C316.625,870.451 318.789,854.819 365.583,898.169C366.325,898.856 366.84,898.957 367.292,898.742C371.621,896.684 371.779,894.033 373.563,891.593C376.751,887.231 384.394,888.642 385.685,894.215C386.175,896.329 385.532,898.625 388.47,901.206Z" style="fill:url(#_Linear10);"/>
        </g>
    </g>
    <defs>
        <linearGradient id="_Linear1" x1="0" y1="0" x2="1" y2="0" gradientUnits="userSpaceOnUse" gradientTransform="matrix(5.57214e-17,-0.91,0.91,5.57214e-17,2.099,0.21)"><stop offset="0" style="stop-color:rgb(13,35,87);stop-opacity:1"/><stop offset="1" style="stop-color:rgb(43,70,135);stop-opacity:1"/></linearGradient>
        <linearGradient id="_Linear2" x1="0" y1="0" x2="1" y2="0" gradientUnits="userSpaceOnUse" gradientTransform="matrix(5.57214e-17,-0.91,0.91,5.57214e-17,1.627,0.21)"><stop offset="0" style="stop-color:rgb(13,35,87);stop-opacity:1"/><stop offset="1" style="stop-color:rgb(43,70,135);stop-opacity:1"/></linearGradient>
        <linearGradient id="_Linear3" x1="0" y1="0" x2="1" y2="0" gradientUnits="userSpaceOnUse" gradientTransform="matrix(5.57214e-17,-0.91,0.91,5.57214e-17,1.083,0.21)"><stop offset="0" style="stop-color:rgb(13,35,87);stop-opacity:1"/><stop offset="1" style="stop-color:rgb(43,70,135);stop-opacity:1"/></linearGradient>
        <linearGradient id="_Linear4" x1="0" y1="0" x2="1" y2="0" gradientUnits="userSpaceOnUse" gradientTransform="matrix(5.57214e-17,-0.91,0.91,5.57214e-17,0.573,0.21)"><stop offset="0" style="stop-color:rgb(13,35,87);stop-opacity:1"/><stop offset="1" style="stop-color:rgb(43,70,135);stop-opacity:1"/></linearGradient>
        <linearGradient id="_Linear5" x1="0" y1="0" x2="1" y2="0" gradientUnits="userSpaceOnUse" gradientTransform="matrix(5.57214e-17,-0.91,0.91,5.57214e-17,0.062,0.21)"><stop offset="0" style="stop-color:rgb(13,35,87);stop-opacity:1"/><stop offset="1" style="stop-color:rgb(43,70,135);stop-opacity:1"/></linearGradient>
        <linearGradient id="_Linear6" x1="0" y1="0" x2="1" y2="0" gradientUnits="userSpaceOnUse" gradientTransform="matrix(-2.89116e-15,1.02329,-1.02329,-2.89116e-15,0.171,-1.01129)"><stop offset="0" style="stop-color:rgb(250,77,115);stop-opacity:1"/><stop offset="1" style="stop-color:rgb(210,65,97);stop-opacity:1"/></linearGradient>
        <linearGradient id="_Linear7" x1="0" y1="0" x2="1" y2="0" gradientUnits="userSpaceOnUse" gradientTransform="matrix(5.57214e-17,-0.91,0.91,5.57214e-17,-1.16045,0.21)"><stop offset="0" style="stop-color:rgb(13,35,87);stop-opacity:1"/><stop offset="1" style="stop-color:rgb(43,70,135);stop-opacity:1"/></linearGradient>
        <linearGradient id="_Linear8" x1="0" y1="0" x2="1" y2="0" gradientUnits="userSpaceOnUse" gradientTransform="matrix(5.57214e-17,-0.91,0.91,5.57214e-17,-1.51745,0.21)"><stop offset="0" style="stop-color:rgb(13,35,87);stop-opacity:1"/><stop offset="1" style="stop-color:rgb(43,70,135);stop-opacity:1"/></linearGradient>
        <linearGradient id="_Linear9" x1="0" y1="0" x2="1" y2="0" gradientUnits="userSpaceOnUse" gradientTransform="matrix(5.57214e-17,-0.91,0.91,5.57214e-17,-1.78745,0.21)"><stop offset="0" style="stop-color:rgb(13,35,87);stop-opacity:1"/><stop offset="1" style="stop-color:rgb(43,70,135);stop-opacity:1"/></linearGradient>
        <linearGradient id="_Linear10" x1="0" y1="0" x2="1" y2="0" gradientUnits="userSpaceOnUse" gradientTransform="matrix(-4.86741e-13,172.277,-172.277,-4.86741e-13,845.441,841.963)"><stop offset="0" style="stop-color:rgb(250,77,115);stop-opacity:1"/><stop offset="1" style="stop-color:rgb(210,65,97);stop-opacity:1"/></linearGradient>
    </defs>
</svg>
