<?xml version="1.0" encoding="UTF-8" standalone="no"?>
<!DOCTYPE svg PUBLIC "-//W3C//DTD SVG 1.1//EN" "http://www.w3.org/Graphics/SVG/1.1/DTD/svg11.dtd">
<svg width="100%" height="100%" viewBox="0 0 480 100" version="1.1" xmlns="http://www.w3.org/2000/svg" xmlns:xlink="http://www.w3.org/1999/xlink" xml:space="preserve" xmlns:serif="http://www.serif.com/" style="fill-rule:evenodd;clip-rule:evenodd;stroke-linejoin:round;stroke-miterlimit:2;">
    <g transform="matrix(1.6058,0,0,1.6058,66.8127,82.1061)">
        <g transform="matrix(50,0,0,50,0,0)">
            <path d="M0.413,-0.397C0.334,-0.408 0.277,-0.413 0.242,-0.413C0.207,-0.413 0.182,-0.409 0.169,-0.401C0.155,-0.392 0.148,-0.379 0.148,-0.361C0.148,-0.343 0.156,-0.33 0.171,-0.323C0.186,-0.316 0.221,-0.307 0.277,-0.298C0.332,-0.288 0.372,-0.273 0.395,-0.252C0.418,-0.231 0.43,-0.195 0.43,-0.142C0.43,-0.089 0.413,-0.051 0.38,-0.026C0.346,-0.001 0.297,0.011 0.232,0.011C0.191,0.011 0.14,0.005 0.078,-0.006L0.047,-0.011L0.051,-0.102C0.131,-0.091 0.189,-0.086 0.224,-0.086C0.259,-0.086 0.285,-0.09 0.3,-0.099C0.315,-0.108 0.322,-0.122 0.322,-0.142C0.322,-0.162 0.315,-0.176 0.301,-0.184C0.286,-0.191 0.252,-0.2 0.198,-0.209C0.143,-0.218 0.103,-0.232 0.078,-0.251C0.053,-0.27 0.04,-0.306 0.04,-0.357C0.04,-0.408 0.057,-0.447 0.093,-0.472C0.127,-0.497 0.172,-0.51 0.227,-0.51C0.27,-0.51 0.322,-0.505 0.384,-0.494L0.415,-0.488L0.413,-0.397Z" style="fill:white;fill-rule:nonzero;"/>
        </g>
        <g transform="matrix(50,0,0,50,23.45,0)">
            <path d="M0.066,0.215L0.066,-0.5L0.174,-0.5L0.174,-0.469C0.22,-0.497 0.263,-0.511 0.303,-0.511C0.369,-0.511 0.417,-0.491 0.448,-0.451C0.479,-0.41 0.494,-0.343 0.494,-0.248C0.494,-0.153 0.476,-0.086 0.442,-0.047C0.407,-0.008 0.349,0.011 0.27,0.011C0.243,0.011 0.211,0.008 0.175,0.002L0.175,0.215L0.066,0.215ZM0.284,-0.414C0.253,-0.414 0.221,-0.407 0.19,-0.393L0.175,-0.386L0.175,-0.091C0.202,-0.086 0.231,-0.083 0.263,-0.083C0.308,-0.083 0.34,-0.096 0.357,-0.122C0.374,-0.148 0.383,-0.192 0.383,-0.255C0.383,-0.361 0.35,-0.414 0.284,-0.414Z" style="fill:white;fill-rule:nonzero;"/>
        </g>
        <g transform="matrix(50,0,0,50,50.3,0)">
            <path d="M0.422,-0.09L0.45,-0.093L0.452,-0.012C0.376,0.003 0.309,0.011 0.25,0.011C0.176,0.011 0.123,-0.009 0.091,-0.05C0.058,-0.091 0.042,-0.156 0.042,-0.245C0.042,-0.422 0.114,-0.511 0.259,-0.511C0.399,-0.511 0.469,-0.435 0.469,-0.282L0.462,-0.204L0.152,-0.204C0.153,-0.163 0.162,-0.132 0.179,-0.113C0.196,-0.094 0.229,-0.084 0.276,-0.084C0.323,-0.084 0.372,-0.086 0.422,-0.09ZM0.362,-0.288C0.362,-0.337 0.354,-0.372 0.339,-0.392C0.323,-0.411 0.296,-0.421 0.259,-0.421C0.222,-0.421 0.195,-0.411 0.178,-0.39C0.161,-0.369 0.152,-0.335 0.151,-0.288L0.362,-0.288Z" style="fill:white;fill-rule:nonzero;"/>
        </g>
        <g transform="matrix(50,0,0,50,75.7,0)">
            <path d="M0.436,-0.346L0.436,-0.118C0.437,-0.103 0.44,-0.093 0.448,-0.086C0.455,-0.079 0.465,-0.074 0.48,-0.072L0.477,0.011C0.42,0.011 0.375,-0.001 0.344,-0.026C0.291,-0.001 0.237,0.011 0.183,0.011C0.084,0.011 0.034,-0.042 0.034,-0.148C0.034,-0.199 0.048,-0.235 0.075,-0.258C0.101,-0.281 0.143,-0.294 0.199,-0.299L0.328,-0.31L0.328,-0.346C0.328,-0.373 0.322,-0.391 0.311,-0.402C0.299,-0.413 0.282,-0.418 0.259,-0.418C0.216,-0.418 0.163,-0.415 0.099,-0.41L0.067,-0.408L0.063,-0.485C0.136,-0.502 0.203,-0.511 0.264,-0.511C0.325,-0.511 0.369,-0.498 0.396,-0.472C0.423,-0.445 0.436,-0.403 0.436,-0.346ZM0.212,-0.222C0.166,-0.218 0.143,-0.193 0.143,-0.147C0.143,-0.101 0.163,-0.078 0.204,-0.078C0.237,-0.078 0.273,-0.083 0.31,-0.094L0.328,-0.1L0.328,-0.233L0.212,-0.222Z" style="fill:white;fill-rule:nonzero;"/>
        </g>
        <g transform="matrix(50,0,0,50,101.05,0)">
            <path d="M0.175,0L0.066,0L0.066,-0.708L0.175,-0.708L0.175,-0.299L0.237,-0.305L0.355,-0.5L0.477,-0.5L0.333,-0.266L0.485,0L0.362,0L0.24,-0.211L0.175,-0.204L0.175,0Z" style="fill:white;fill-rule:nonzero;"/>
        </g>
        <g transform="matrix(50,0,0,50,126,0)">
            <path d="M0.123,-0.558C0.123,-0.604 0.14,-0.64 0.175,-0.667C0.209,-0.694 0.256,-0.707 0.317,-0.707C0.378,-0.707 0.424,-0.693 0.457,-0.667C0.49,-0.64 0.506,-0.602 0.506,-0.555C0.506,-0.507 0.495,-0.469 0.474,-0.442C0.453,-0.415 0.415,-0.385 0.361,-0.354L0.483,-0.233C0.488,-0.246 0.492,-0.268 0.497,-0.299C0.502,-0.33 0.505,-0.355 0.506,-0.376L0.611,-0.374C0.602,-0.293 0.585,-0.224 0.562,-0.169L0.681,-0.06L0.619,0.011L0.506,-0.087C0.484,-0.056 0.455,-0.032 0.418,-0.015C0.381,0.002 0.341,0.011 0.297,0.011C0.203,0.011 0.136,-0.007 0.097,-0.042C0.058,-0.077 0.038,-0.13 0.038,-0.199C0.038,-0.254 0.05,-0.297 0.073,-0.328C0.096,-0.358 0.134,-0.383 0.186,-0.402C0.16,-0.432 0.143,-0.457 0.135,-0.478C0.127,-0.499 0.123,-0.525 0.123,-0.558ZM0.285,-0.086C0.317,-0.086 0.346,-0.092 0.373,-0.103C0.4,-0.114 0.419,-0.129 0.432,-0.148L0.243,-0.337C0.21,-0.324 0.186,-0.308 0.171,-0.288C0.156,-0.268 0.148,-0.241 0.148,-0.208C0.148,-0.127 0.194,-0.086 0.285,-0.086ZM0.233,-0.536C0.233,-0.503 0.248,-0.471 0.278,-0.439L0.3,-0.416C0.335,-0.436 0.36,-0.455 0.375,-0.472C0.389,-0.489 0.396,-0.512 0.396,-0.539C0.396,-0.59 0.369,-0.615 0.315,-0.615C0.26,-0.615 0.233,-0.589 0.233,-0.536Z" style="fill:white;fill-rule:nonzero;"/>
        </g>
        <g transform="matrix(50,0,0,50,160.8,0)">
            <path d="M0.197,-0.407L0.197,0L0.089,0L0.089,-0.407L0.031,-0.407L0.031,-0.5L0.089,-0.5L0.089,-0.532C0.089,-0.603 0.099,-0.652 0.12,-0.679C0.141,-0.706 0.177,-0.719 0.23,-0.719L0.338,-0.709L0.337,-0.62C0.304,-0.621 0.277,-0.622 0.256,-0.622C0.234,-0.622 0.219,-0.616 0.21,-0.603C0.201,-0.59 0.197,-0.566 0.197,-0.531L0.197,-0.5L0.329,-0.5L0.329,-0.407L0.197,-0.407Z" style="fill:white;fill-rule:nonzero;"/>
        </g>
        <g transform="matrix(50,0,0,50,178.1,0)">
            <rect x="0.072" y="-0.708" width="0.109" height="0.708" style="fill:white;"/>
        </g>
        <g transform="matrix(50,0,0,50,190.75,0)">
            <path d="M0.02,-0.5L0.127,-0.5L0.233,-0.093L0.26,-0.093L0.366,-0.5L0.474,-0.5L0.284,0.215L0.177,0.215L0.237,0L0.151,0L0.02,-0.5Z" style="fill:white;fill-rule:nonzero;"/>
        </g>
    </g>
    <g transform="matrix(0.47481,0,0,0.47481,-115.473,-398.643)">
        <path d="M388.47,901.206C388.792,901.488 389.32,901.632 390.22,901.465C473.628,885.963 472.353,912.464 528.353,905.849C488.011,929.121 411.864,902.844 385.358,920.228C383.854,921.215 383.316,924.148 381.592,927.016C379.836,929.938 377.999,930.846 377.783,932.088C377.28,934.992 377.389,937.517 378.617,941.339C378.986,942.488 378.813,946.537 377.513,946.672C371.82,947.265 360.969,945.314 357.746,942.648C356.938,941.979 358.221,938.495 359.38,937.4C361.734,935.177 362.527,933.573 363.955,929.604C364.592,927.833 363.347,926.329 362.659,922.39C361.826,917.619 362.977,915.524 361.85,914.422C324.375,877.778 273.846,871.981 246.71,841.963C316.625,870.451 318.789,854.819 365.583,898.169C366.325,898.856 366.84,898.957 367.292,898.742C371.621,896.684 371.779,894.033 373.563,891.593C376.751,887.231 384.394,888.642 385.685,894.215C386.175,896.329 385.532,898.625 388.47,901.206Z" style="fill:white;"/>
    </g>
</svg>
