<?xml version="1.0" encoding="UTF-8" standalone="no"?>
<!DOCTYPE svg PUBLIC "-//W3C//DTD SVG 1.1//EN" "http://www.w3.org/Graphics/SVG/1.1/DTD/svg11.dtd">
<svg width="100%" height="100%" viewBox="0 0 99 37" version="1.1" xmlns="http://www.w3.org/2000/svg" xmlns:xlink="http://www.w3.org/1999/xlink" xml:space="preserve" xmlns:serif="http://www.serif.com/" style="fill-rule:evenodd;clip-rule:evenodd;stroke-linejoin:round;stroke-miterlimit:2;">
    <g transform="matrix(0.350262,0,0,0.350262,-86.2377,-294.764)">
        <path d="M388.47,901.206C388.792,901.488 389.32,901.632 390.22,901.465C473.628,885.963 472.353,912.464 528.353,905.849C488.011,929.121 411.864,902.844 385.358,920.228C383.854,921.215 383.316,924.148 381.592,927.016C379.836,929.938 377.999,930.846 377.783,932.088C377.28,934.992 377.389,937.517 378.617,941.339C378.986,942.488 378.813,946.537 377.513,946.672C371.82,947.265 360.969,945.314 357.746,942.648C356.938,941.979 358.221,938.495 359.38,937.4C361.734,935.177 362.527,933.573 363.955,929.604C364.592,927.833 363.347,926.329 362.659,922.39C361.826,917.619 362.977,915.524 361.85,914.422C324.375,877.778 273.846,871.981 246.71,841.963C316.625,870.451 318.789,854.819 365.583,898.169C366.325,898.856 366.84,898.957 367.292,898.742C371.621,896.684 371.779,894.033 373.563,891.593C376.751,887.231 384.394,888.642 385.685,894.215C386.175,896.329 385.532,898.625 388.47,901.206Z" style="fill:#f64c72;"/>
    </g>
</svg>
